<svg width="580" height="400" xmlns="http://www.w3.org/2000/svg">
 <!-- Created with SVG Editor - http://github.com/mzalive/SVG Editor/ -->
 <g>
  <title>background</title>
  <rect fill="#fff" id="canvas_background" height="402" width="582" y="-1" x="-1"/>
  <g display="none" overflow="visible" y="0" x="0" height="100%" width="100%" id="canvasGrid">
   <rect fill="url(#gridpattern)" stroke-width="0" y="0" x="0" height="100%" width="100%"/>
  </g>
 </g>
 <g>
  <title>Layer 1</title>
  <path stroke="#7e919f" id="svg_1" d="m209.87249,205.735846c0,6.995607 -12.983742,12.666668 -29,12.666668m29,-12.666668l0,0c0,6.995607 -12.983742,12.666668 -29,12.666668c-16.016252,0 -28.99999,-5.671049 -28.99999,-12.666668m0,0l0,0c0,-6.995599 12.983738,-12.666664 28.99999,-12.666664c16.016258,0 29,5.671065 29,12.666664l0,50.666691c0,6.995599 -12.983742,12.666645 -29,12.666645c-16.016252,0 -28.99999,-5.671046 -28.99999,-12.666645l0,-50.666691z" stroke-width="36.5" fill="#fff"/>
  <path stroke="#d9dee2" id="svg_2" d="m316.87249,154.23584c0,12.794592 -12.98374,23.166676 -29,23.166676m29,-23.166676l0,0c0,12.794592 -12.98374,23.166676 -29,23.166676c-16.01625,0 -28.99999,-10.372056 -28.99999,-23.166676m0,0l0,0c0,-12.794578 12.98374,-23.166662 28.99999,-23.166662c16.01626,0 29,10.372084 29,23.166662l0,92.666718c0,12.794578 -12.98374,23.166621 -29,23.166621c-16.01625,0 -28.99999,-10.372042 -28.99999,-23.166621l0,-92.666718z" stroke-width="36.5" fill="#fff"/>
  <path stroke="#d9dee2" id="svg_3" d="m426.87249,112.569181c0,17.396959 -12.98374,31.500016 -29,31.500016m29,-31.500016l0,0c0,17.396959 -12.98374,31.500016 -29,31.500016c-16.01625,0 -28.99999,-14.103016 -28.99999,-31.500016m0,0l0,0c0,-17.396946 12.98374,-31.499989 28.99999,-31.499989c16.01626,0 29,14.103043 29,31.499989l0,126.000063c0,17.396946 -12.98374,31.499934 -29,31.499934c-16.01625,0 -28.99999,-14.102989 -28.99999,-31.499934l0,-126.000063z" stroke-width="36.5" fill="#fff"/>
  <line stroke-linecap="null" stroke-linejoin="null" id="svg_4" y2="221.453125" x2="298.5" y1="131.453125" x1="299.5" stroke-opacity="null" stroke-width="36.5" stroke="#d9dee2" fill="none"/>
  <line stroke-linecap="null" stroke-linejoin="null" id="svg_5" y2="146.453125" x2="287.5" y1="247.453125" x1="288.5" stroke-opacity="null" stroke-width="36.5" stroke="#d9dee2" fill="none"/>
  <line stroke-linecap="null" stroke-linejoin="null" id="svg_6" y2="235.453125" x2="286.5" y1="262.453125" x1="284.5" stroke-opacity="null" stroke-width="36.5" stroke="#d9dee2" fill="none"/>
  <line stroke-linecap="null" stroke-linejoin="null" id="svg_7" y2="91.453125" x2="391.5" y1="263.453125" x1="392.5" stroke-opacity="null" stroke-width="36.5" stroke="#d9dee2" fill="none"/>
  <line stroke-linecap="null" stroke-linejoin="null" id="svg_8" y2="224.453125" x2="182.5" y1="259.453125" x1="179.5" stroke-opacity="null" stroke-width="36.5" stroke="#7e919f" fill="none"/>
  <path stroke="#d9dee2" id="svg_9" d="m316.87249,206.73585c0,6.9956 -12.98374,12.66666 -29,12.66666m29,-12.66666l0,0c0,6.9956 -12.98374,12.66666 -29,12.66666c-16.01625,0 -28.99999,-5.67104 -28.99999,-12.66666m0,0l0,0c0,-6.9956 12.98374,-12.66667 28.99999,-12.66667c16.01626,0 29,5.67107 29,12.66667l0,50.66669c0,6.9956 -12.98374,12.66664 -29,12.66664c-16.01625,0 -28.99999,-5.67104 -28.99999,-12.66664l0,-50.66669z" stroke-width="36.5" fill="#fff"/>
  <line stroke-linecap="null" stroke-linejoin="null" id="svg_10" y2="225.453125" x2="289.5" y1="260.453125" x1="286.5" stroke-opacity="null" stroke-width="36.5" stroke="#d9dee2" fill="none"/>
  <path stroke="#d9dee2" id="svg_11" d="m426.87249,207.73585c0,6.9956 -12.98374,12.66666 -29,12.66666m29,-12.66666l0,0c0,6.9956 -12.98374,12.66666 -29,12.66666c-16.01625,0 -28.99999,-5.67104 -28.99999,-12.66666m0,0l0,0c0,-6.9956 12.98374,-12.66667 28.99999,-12.66667c16.01626,0 29,5.67107 29,12.66667l0,50.66669c0,6.9956 -12.98374,12.66664 -29,12.66664c-16.01625,0 -28.99999,-5.67104 -28.99999,-12.66664l0,-50.66669z" stroke-width="36.5" fill="#fff"/>
  <line stroke-linecap="null" stroke-linejoin="null" id="svg_12" y2="226.453125" x2="399.5" y1="261.453125" x1="396.5" stroke-opacity="null" stroke-width="36.5" stroke="#d9dee2" fill="none"/>
  <path stroke="#d9dee2" id="svg_13" d="m316.87249,142.73585c0,6.9956 -12.98374,12.66666 -29,12.66666m29,-12.66666l0,0c0,6.9956 -12.98374,12.66666 -29,12.66666c-16.01625,0 -28.99999,-5.67104 -28.99999,-12.66666m0,0l0,0c0,-6.9956 12.98374,-12.66667 28.99999,-12.66667c16.01626,0 29,5.67107 29,12.66667l0,50.66669c0,6.9956 -12.98374,12.66664 -29,12.66664c-16.01625,0 -28.99999,-5.67104 -28.99999,-12.66664l0,-50.66669z" stroke-width="36.5" fill="#fff"/>
  <line stroke-linecap="null" stroke-linejoin="null" id="svg_14" y2="161.453125" x2="289.5" y1="196.453125" x1="286.5" stroke-opacity="null" stroke-width="36.5" stroke="#d9dee2" fill="none"/>
  <path stroke="#d9dee2" id="svg_15" d="m426.87249,87.73585c0,6.9956 -12.98374,12.66666 -29,12.66666m29,-12.66666l0,0c0,6.9956 -12.98374,12.66666 -29,12.66666c-16.01625,0 -28.99999,-5.67104 -28.99999,-12.66666m0,0l0,0c0,-6.9956 12.98374,-12.66667 28.99999,-12.66667c16.01626,0 29,5.67107 29,12.66667l0,50.66669c0,6.9956 -12.98374,12.66664 -29,12.66664c-16.01625,0 -28.99999,-5.67104 -28.99999,-12.66664l0,-50.66669z" stroke-width="36.5" fill="#fff"/>
  <line stroke-linecap="null" stroke-linejoin="null" id="svg_16" y2="106.453125" x2="399.5" y1="141.453125" x1="396.5" stroke-opacity="null" stroke-width="36.5" stroke="#d9dee2" fill="none"/>
  <path id="svg_18" d="m136.5,130.453125" opacity="0.5" stroke-opacity="null" stroke-width="36.5" stroke="#d9dee2" fill="#0000ff"/>
 </g>
</svg>