<svg xmlns="http://www.w3.org/2000/svg" x="0px" y="0px"
										viewBox="0 0 512 512" style="enable-background:new 0 0 512 512;" xml:space="preserve">
    <g>
        <g>
            <path style="fill-rule:evenodd;clip-rule:evenodd;fill:#8EBFE8;" d="M357.115,44.095L196.307,25.318L35.5,44.095v426
                l160.807,20.967l160.807-20.967C357.115,386.227,357.115,227.922,357.115,44.095L357.115,44.095z"/>
        </g>
        <g>
            <path style="fill-rule:evenodd;clip-rule:evenodd;fill:#E6E6E6;" d="M357.115,470.095H35.5v15.828
                C35.5,500.261,47.241,512,61.581,512h269.453c14.34,0,26.081-11.739,26.081-26.077V470.095z"/>
        </g>
        <g>
            <path style="fill-rule:evenodd;clip-rule:evenodd;fill:#E6E6E6;" d="M35.5,44.095h102.834
                c13.143-0.088,23.423-0.146,29.994,11.184c5.52,9.52,16.063,15.974,28.213,15.886c12.412,0,22.313-6.892,27.95-15.886
                c7.068-11.243,16.531-11.097,29.994-11.184h102.629V26.077C357.115,11.739,345.374,0,331.034,0H61.581
                C47.241,0,35.5,11.739,35.5,26.077V44.095z"/>
        </g>
        <g>
            <path style="fill-rule:evenodd;clip-rule:evenodd;fill:#C4CCCF;" d="M320.169,26.077v13.696v4.322h36.945V26.077
                C357.115,11.739,345.374,0,331.034,0h-36.916C308.458,0,320.169,11.739,320.169,26.077L320.169,26.077z"/>
        </g>
        <g>
            <path style="fill-rule:evenodd;clip-rule:evenodd;fill:#C4CCCF;" d="M320.169,485.923c0,14.28-11.653,25.99-25.935,26.077h36.799
                c14.34,0,26.081-11.739,26.081-26.077v-15.828h-36.945v4.818V485.923z"/>
        </g>
        <g>
            <polygon style="fill-rule:evenodd;clip-rule:evenodd;fill:#519AD6;" points="320.169,409.063 320.169,470.095 357.115,470.095 
                357.115,412.041 357.115,197.961 357.115,44.095 320.169,44.095 320.169,200.969 		"/>
        </g>
        <g>
            <path style="fill:#35505C;" d="M196.541,41.072h-0.235c-4.267,0-7.725-3.458-7.725-7.724s3.458-7.724,7.725-7.724h0.235
                c4.267,0,7.725,3.458,7.725,7.724S200.808,41.072,196.541,41.072z"/>
        </g>
        <g>
            <path style="fill:#35505C;" d="M299.462,164.685H74.577c-4.267,0-7.725-3.458-7.725-7.724c0-4.266,3.458-7.724,7.725-7.724
                h224.885c4.267,0,7.725,3.458,7.725,7.724C307.187,161.227,303.729,164.685,299.462,164.685z"/>
        </g>
        <g>
            <path style="fill:#35505C;" d="M299.462,114.604H120.109c-4.267,0-7.725-3.458-7.725-7.724c0-4.266,3.458-7.724,7.725-7.724
                h179.353c4.267,0,7.725,3.458,7.725,7.724C307.187,111.146,303.729,114.604,299.462,114.604z"/>
        </g>
        <g>
            <path style="fill:#35505C;" d="M299.462,214.737H74.577c-4.267,0-7.725-3.458-7.725-7.724s3.458-7.724,7.725-7.724h224.885
                c4.267,0,7.725,3.458,7.725,7.724S303.729,214.737,299.462,214.737z"/>
        </g>
        <g>
            <path style="fill:#35505C;" d="M288.948,264.818H74.577c-4.267,0-7.725-3.458-7.725-7.724s3.458-7.724,7.725-7.724h214.37
                c4.267,0,7.725,3.458,7.725,7.724S293.214,264.818,288.948,264.818z"/>
        </g>
        <g>
            <path style="fill:#35505C;" d="M263.043,314.9H74.577c-4.267,0-7.725-3.458-7.725-7.724s3.458-7.724,7.725-7.724h188.466
                c4.267,0,7.725,3.458,7.725,7.724S267.31,314.9,263.043,314.9z"/>
        </g>
        <g>
            <path style="fill:#35505C;" d="M299.462,364.953H74.577c-4.267,0-7.725-3.458-7.725-7.724c0-4.266,3.458-7.724,7.725-7.724
                h224.885c4.267,0,7.725,3.458,7.725,7.724C307.187,361.495,303.729,364.953,299.462,364.953z"/>
        </g>
        <g>
            <path style="fill:#35505C;" d="M253.373,415.034H74.577c-4.267,0-7.725-3.458-7.725-7.724c0-4.266,3.458-7.724,7.725-7.724
                h178.796c4.267,0,7.725,3.458,7.725,7.724C261.098,411.576,257.64,415.034,253.373,415.034z"/>
        </g>
        <g>
            <path style="fill-rule:evenodd;clip-rule:evenodd;fill:#546E7A;" d="M245.023,375.305l-3.213,20.179
                c-2.278,14.922,12.851,24.647,25.73,14.221l15.421-13.404l-10.777-24.793L245.023,375.305z"/>
        </g>
        <g>
            <polygon style="fill-rule:evenodd;clip-rule:evenodd;fill:#FFD54F;" points="321.016,363.245 297.418,330.334 252.879,325.574 
                245.023,375.305 282.961,396.301 		"/>
        </g>
        <g>
            <polygon style="fill-rule:evenodd;clip-rule:evenodd;fill:#E69B56;" points="292.687,347.592 268.504,391.395 282.961,396.301 
                321.016,363.245 		"/>
        </g>
        <g>
            <path style="fill-rule:evenodd;clip-rule:evenodd;fill:#35505C;" d="M269.789,389.059l-11.04,11.389
                c-8.82,5.84-12.091,5.432-15.333,5.724c4.147,8.031,14.749,11.126,24.124,3.533l15.421-13.404L269.789,389.059z"/>
        </g>
        <g>
            <polygon style="fill-rule:evenodd;clip-rule:evenodd;fill:#8BC34A;" points="384.422,87.752 260.239,312.258 252.879,325.574 
                321.016,363.245 363.102,287.173 464.651,103.58 464.651,103.551 441.783,67.223 396.514,65.88 		"/>
        </g>
        <g>
            <polygon style="fill-rule:evenodd;clip-rule:evenodd;fill:#689F38;" points="292.687,347.592 321.016,363.245 363.102,287.173 
                464.651,103.58 464.651,103.551 436.321,87.898 436.321,87.927 334.772,271.521 		"/>
        </g>
        <g>
            <path style="fill-rule:evenodd;clip-rule:evenodd;fill:#F0417B;" d="M456.444,37.963c-18.721-10.367-42.524-3.504-52.892,15.214
                l-7.039,12.703l68.137,37.671l7.009-12.674C481.941,72.334,475.369,48.446,456.444,37.963L456.444,37.963z"/>
        </g>
        <g>
            <path style="fill-rule:evenodd;clip-rule:evenodd;fill:#A3316E;" d="M440.585,33.232c8.119,11.068,10.018,25.99,4.293,38.926
                c-0.467,1.022-0.964,2.044-1.548,3.066l-7.009,12.674l28.33,15.652l7.009-12.674c10.28-18.543,3.709-42.431-15.216-52.914
                C451.421,35.188,445.988,33.641,440.585,33.232L440.585,33.232z"/>
        </g>
    </g>
    <g>
    </g>
    <g>
    </g>
    <g>
    </g>
    <g>
    </g>
    <g>
    </g>
    <g>
    </g>
    <g>
    </g>
    <g>
    </g>
    <g>
    </g>
    <g>
    </g>
    <g>
    </g>
    <g>
    </g>
    <g>
    </g>
    <g>
    </g>
    <g>
    </g>
    </svg>