<svg version="1.1" id="Capa_1" xmlns="http://www.w3.org/2000/svg" xmlns:xlink="http://www.w3.org/1999/xlink" x="0px" y="0px"
	 viewBox="0 0 512 512" style="enable-background:new 0 0 512 512;" xml:space="preserve">
<g>
	<g>
		<path d="M472.017,459.91c-1.083,0-2.184-0.228-3.233-0.71c-66.345-30.497-178.214-18.142-208.91-0.338
			c-3.702,2.148-8.451,0.887-10.6-2.824c-2.149-3.709-0.885-8.458,2.822-10.609c18.623-10.802,57.47-18.711,98.964-20.148
			c28.174-0.976,81.755,0.301,124.2,19.81c3.892,1.789,5.599,6.398,3.811,10.295C477.765,458.232,474.954,459.91,472.017,459.91z"/>
	</g>
	<g>
		<path d="M39.983,459.91c-2.937,0.001-5.747-1.678-7.053-4.523c-1.789-3.896-0.083-8.505,3.809-10.295
			c42.428-19.511,96.018-20.791,124.186-19.811c41.502,1.438,80.344,9.347,98.952,20.15c3.706,2.151,4.966,6.901,2.817,10.61
			c-2.148,3.709-6.895,4.972-10.601,2.819c-30.684-17.811-142.526-30.17-208.876,0.339C42.168,459.681,41.066,459.91,39.983,459.91z
			"/>
	</g>
	<g>
		<path style="fill-rule:evenodd;clip-rule:evenodd;fill:#8EBFE8;" d="M255.985,512l211.121-0.262
			C495.38,511.709,511,491.311,511,469.808V199.605c0-16.993-13.904-30.902-30.891-30.902h-8.086H39.978h-8.116
			C14.875,168.703,1,182.612,1,199.605v270.203c0,21.503,15.591,41.901,43.894,41.93L255.985,512z"/>
	</g>
	<g>
		<path style="fill-rule:evenodd;clip-rule:evenodd;fill:#ECEFF1;" d="M472.027,161.077v291.071H255.99V147.871
			c2.237-1.294,4.813-2.557,7.748-3.769c18.994-7.867,52.703-13.823,102.431-15.23c38.512,1.068,60.502,3.954,81.272,9.859
			C465.798,143.937,472.027,145.601,472.027,161.077z"/>
	</g>
	<g>
		<path style="fill-rule:evenodd;clip-rule:evenodd;fill:#ECEFF1;" d="M286.118,284.6l-22.38,124.468l-7.748,43.081H39.973V161.077
			c0-15.476,6.229-17.14,24.556-22.347c20.8-5.905,42.76-8.791,81.303-9.859c49.717,1.407,83.406,7.353,102.4,15.22
			c2.935,1.222,5.521,2.485,7.758,3.779l7.748,35.163L286.118,284.6z"/>
	</g>
	<g>
		<path style="fill-rule:evenodd;clip-rule:evenodd;fill:#90A4AE;" d="M55.947,472.805h200.038l11.955-11.959l-11.955-8.7
			c-34.033-19.758-148.174-31.193-216.008,0v4.248C39.978,465.414,47.163,472.805,55.947,472.805L55.947,472.805z"/>
	</g>
	<g>
		<path style="fill-rule:evenodd;clip-rule:evenodd;fill:#90A4AE;" d="M472.022,452.146c-67.862-31.193-181.975-19.758-216.037,0
			v20.66h200.038c8.785,0,15.998-7.391,15.998-16.411V452.146z"/>
	</g>
	<g>
		<path style="fill-rule:evenodd;clip-rule:evenodd;fill:#FCD968;" d="M333.68,215.114l24.201,14.374l24.23-14.374h1.862
			c0-41.959,40.607-47.371,40.549-92.502c-0.058-43.007-33.335-64.161-66.641-63.666c-33.277-0.495-66.553,20.66-66.612,63.666
			c-0.058,45.131,40.549,50.543,40.549,92.502H333.68z"/>
	</g>
	<g>
		<path style="fill-rule:evenodd;clip-rule:evenodd;fill:#E69B56;" d="M399.36,122.612c0.058,45.131-40.549,50.543-40.549,92.502
			h23.299h1.862c0-41.959,40.607-47.371,40.549-92.502c-0.058-43.007-33.335-64.161-66.641-63.666
			c-4.189-0.087-8.406,0.204-12.566,0.844C373.937,64.183,399.331,85.076,399.36,122.612L399.36,122.612z"/>
	</g>
	<g>
		<path style="fill-rule:evenodd;clip-rule:evenodd;fill:#C4CCCF;" d="M441.334,168.703v272.793
			c10.879,2.793,21.234,6.285,30.688,10.65V168.703v-7.624c0-15.48-6.225-17.139-24.579-22.347
			c-2.007-0.582-4.043-1.135-6.108-1.659V168.703z"/>
	</g>
	<g>
		<path style="fill-rule:evenodd;clip-rule:evenodd;fill:#7C8C94;" d="M472.022,452.146c-9.454-4.365-19.809-7.856-30.688-10.65
			v10.65v20.66h14.689c8.785,0,15.998-7.391,15.998-16.411V452.146z"/>
	</g>
	<g>
		<path style="fill-rule:evenodd;clip-rule:evenodd;fill:#519AD6;" d="M472.022,456.394c0,9.02-7.214,16.411-15.998,16.411h-14.689
			v38.962l25.772-0.029C495.38,511.709,511,491.311,511,469.808V199.605c0-16.993-13.904-30.902-30.891-30.902h-8.086v283.443
			V456.394z"/>
	</g>
	<g>
		<path style="fill:#37474F;" d="M79.747,326.642c-2.936,0-5.745-1.676-7.052-4.521c-1.791-3.895-0.086-8.505,3.806-10.296
			c27.003-12.429,60.911-13.249,78.715-12.632c26.706,0.926,50.861,5.896,63.038,12.971c3.705,2.152,4.964,6.903,2.814,10.611
			c-2.151,3.708-6.898,4.968-10.602,2.816c-18.686-10.856-86.917-18.331-127.484,0.339
			C81.933,326.413,80.831,326.642,79.747,326.642z"/>
	</g>
	<g>
		<path style="fill:#37474F;" d="M79.747,383.615c-2.936,0-5.745-1.676-7.052-4.521c-1.791-3.895-0.086-8.505,3.806-10.296
			c27.003-12.429,60.911-13.252,78.715-12.632c26.706,0.926,50.861,5.896,63.038,12.971c3.705,2.152,4.964,6.903,2.814,10.611
			c-2.151,3.708-6.898,4.967-10.602,2.816c-18.686-10.855-86.917-18.332-127.484,0.339
			C81.933,383.386,80.831,383.615,79.747,383.615z"/>
	</g>
	<g>
		<path style="fill:#37474F;" d="M79.747,269.667c-2.934,0-5.742-1.675-7.051-4.517c-1.792-3.894-0.09-8.505,3.801-10.299
			c26.999-12.445,60.909-13.264,78.721-12.643c26.699,0.929,50.853,5.903,63.036,12.981c3.705,2.152,4.964,6.903,2.814,10.611
			c-2.151,3.708-6.898,4.967-10.602,2.816c-18.701-10.865-86.942-18.349-127.48,0.338C81.935,269.439,80.832,269.667,79.747,269.667
			z"/>
	</g>
	<g>
		<path style="fill:#37474F;" d="M432.224,326.642c-1.085,0-2.188-0.229-3.238-0.712c-40.568-18.687-108.776-11.205-127.449-0.341
			c-3.703,2.153-8.451,0.898-10.604-2.81c-2.153-3.706-0.896-8.457,2.808-10.613c12.163-7.076,36.313-12.048,63.027-12.973
			c17.805-0.622,51.716,0.204,78.703,12.632c3.891,1.793,5.595,6.403,3.804,10.298C437.969,324.966,435.16,326.642,432.224,326.642z
			"/>
	</g>
	<g>
		<path style="fill:#37474F;" d="M432.224,383.615c-1.085,0-2.188-0.229-3.238-0.712c-40.568-18.687-108.776-11.205-127.449-0.341
			c-3.703,2.154-8.451,0.898-10.604-2.81c-2.153-3.706-0.896-8.457,2.808-10.613c12.163-7.076,36.313-12.048,63.027-12.973
			c17.805-0.621,51.716,0.204,78.703,12.632c3.891,1.793,5.595,6.403,3.804,10.298C437.969,381.939,435.16,383.615,432.224,383.615z
			"/>
	</g>
	<g>
		<path style="fill:#90A4AE;" d="M263.737,144.102v308.047c0,4.282-3.469,7.764-7.748,7.764c-4.289,0-7.758-3.481-7.758-7.764
			V144.091c2.935,1.222,5.521,2.485,7.758,3.779C258.227,146.577,260.802,145.313,263.737,144.102z"/>
	</g>
	<path style="fill:#ECEFF1;" d="M377.806,138.041H337.17c-4.284,0-7.756,3.475-7.756,7.762c0,4.287,3.472,7.762,7.756,7.762h12.955
		v61.548c0,4.287,3.472,7.762,7.756,7.762c4.284,0,7.756-3.475,7.756-7.762v-61.548h12.169c4.284,0,7.756-3.475,7.756-7.762
		C385.562,141.516,382.09,138.041,377.806,138.041z"/>
	<g>
		<path style="fill:#FCD968;" d="M357.939,35.893c-4.284,0-7.756-3.475-7.756-7.762V7.762c0-4.287,3.472-7.762,7.756-7.762
			s7.756,3.475,7.756,7.762v20.369C365.696,32.418,362.223,35.893,357.939,35.893z"/>
	</g>
	<g>
		<path style="fill:#FCD968;" d="M291.939,54.051c-1.984,0-3.969-0.757-5.484-2.272l-14.428-14.433
			c-3.03-3.031-3.031-7.946-0.003-10.979c3.029-3.033,7.941-3.033,10.97-0.003l14.428,14.433c3.03,3.031,3.031,7.946,0.003,10.979
			C295.91,53.293,293.924,54.051,291.939,54.051z"/>
	</g>
	<g>
		<path style="fill:#FCD968;" d="M423.94,54.051c-1.983,0-3.966-0.756-5.481-2.269c-3.031-3.03-3.035-7.945-0.009-10.979
			l14.398-14.433c3.027-3.034,7.939-3.037,10.97-0.009c3.031,3.03,3.035,7.945,0.009,10.979L429.43,51.773
			C427.914,53.292,425.927,54.051,423.94,54.051z"/>
	</g>
	<g>
		<path style="fill:#37474F;" d="M79.747,212.665c-2.936,0-5.745-1.676-7.052-4.521c-1.791-3.895-0.086-8.505,3.806-10.296
			c26.996-12.426,60.908-13.239,78.717-12.621c26.693,0.929,50.845,5.893,63.029,12.956c3.708,2.148,4.972,6.898,2.825,10.608
			c-2.147,3.711-6.895,4.976-10.599,2.827c-18.713-10.846-86.967-18.316-127.491,0.335
			C81.933,212.436,80.831,212.665,79.747,212.665z"/>
	</g>
	<g>
		<path style="fill-rule:evenodd;clip-rule:evenodd;fill:#C4CCCF;" d="M357.881,215.114H333.68
			c-10.501,0-19.053,8.584-19.053,19.059s8.552,19.03,19.053,19.03h48.432c10.472,0,19.053-8.555,19.053-19.03
			s-8.581-19.059-19.053-19.059H357.881z"/>
	</g>
	<g>
		<path style="fill-rule:evenodd;clip-rule:evenodd;fill:#90A4AE;" d="M401.164,234.173c0-10.475-8.581-19.059-19.053-19.059
			h-23.299h-0.931h-0.931c5.672,0,10.792,2.502,14.282,6.46c2.967,3.375,4.77,7.769,4.77,12.599c0,10.475-8.552,19.03-19.053,19.03
			h25.161C392.583,253.203,401.164,244.648,401.164,234.173L401.164,234.173z"/>
	</g>
</g>
</svg>